<svg id="Layer_1" data-name="Layer 1" xmlns="http://www.w3.org/2000/svg" viewBox="0 0 800 800"><defs><style>.cls-1{fill:#222;}</style></defs><path class="cls-1" d="M750.22,302c5.35,13.75,12,32.26,16.51,46.32-8.92-31.14-49.53-52.44-112.63-53.48A190.59,190.59,0,0,0,646,272.23c56.81-6.68,93.9,5.57,104.21,29.78"/><path class="cls-1" d="M704,221.1c4.65,6.82,11,15.78,15.48,22.74L729,259.68c-10.22-18-43.32-22.57-93.93-9.2a227.67,227.67,0,0,0-13.45-20.68c44.53-19.27,73.29-21.24,82.32-8.7"/><path class="cls-1" d="M644.21,154.38l6.68,6.25c7.47,7.55,17.5,17.58,24.68,25.42-9.6-7.25-30.43,0-69.64,24.36q-8.38-9.34-17.74-17.91c13.33-11.85,48.73-43.34,56-38.12"/><path class="cls-1" d="M573.61,101c11.11,7.29,25.81,17.19,36.57,25-.83-.62-14.87,16.25-41.48,50.23q-10.14-7.67-21-14.35c20.53-38.34,29-59,25.9-60.88"/><path class="cls-1" d="M493.31,61.75c7.69,3.12,18,7.08,25.62,10.44l15.72,7.34c7.54,3.62,5.06,27.62-9.12,70.14q-11.34-5.56-23.12-10c7.44-46.59,3.36-73.44-9.1-78"/><path class="cls-1" d="M403.4,39l10.23,1.54c10.81,2.13,25.25,4.92,35.95,7.53,17.84,4.45,29.19,33.63,29,84.19a218.27,218.27,0,0,0-24.2-4.77c-7.85-54.42-27.35-85.31-51-88.49"/><path class="cls-1" d="M304.78,37.84c15-1.23,34.94-2.31,49.94-2.55,29.79.42,58.55,32.22,75.34,90.33a177.23,177.23,0,0,0-23.45,1.17c-26.67-61.62-65.89-93.28-101.83-88.95"/><path class="cls-1" d="M207.67,63.94c8.85-3.47,20.6-8.23,29.6-11.28l18.23-5.41C297,36.08,347.63,66.29,385,130.89a138.35,138.35,0,0,0-19.66,6.83C316.49,71,253.43,43.82,207.67,63.94"/><path class="cls-1" d="M121,120l8.86-7.77c9.56-7.45,22.47-17.18,32.49-24,48.12-31.08,124.42-8.9,185.41,58.88a114.76,114.76,0,0,0-15.26,11.7C258.93,91.52,168.85,76.39,121,120"/><path class="cls-1" d="M56.16,203.36c6.38-10.91,15.2-25.29,22.31-35.74l6.6-8.8c44.29-56.94,148.38-51.1,234.61,13.83a108.25,108.25,0,0,0-9.43,14.29c-.28.5-.55,1-.82,1.5C192.6,121,88.91,143.09,56.16,203.36"/><path class="cls-1" d="M23.18,302.14l3.81-20c2.43-9.18,5.56-21.44,8.45-30.48,35.84-88.86,166.23-92.9,266.48-45.69h0a119.92,119.92,0,0,0-4.62,19.1c-128-43.46-256-7.46-274.12,77"/><path class="cls-1" d="M22.92,403.94c-1.68-15.14-3.19-35.43-3.75-50.66,0-15.39,5.2-31,16.07-46.08C78.38,247.53,195,219.93,295.73,245.56a146.83,146.83,0,0,0,1.62,21.63c-99.84-13.68-215.73,23.6-258.86,83.27C25.27,368.74,20.42,387,22.92,403.94"/><path class="cls-1" d="M50.42,499.43C45,485.7,38.24,467.21,33.71,453.17c-4.88-16.79-.46-36.51,14.72-57.51C91.57,336,205.23,288.59,302.32,289.78a191.34,191.34,0,0,0,8.19,22.63C217.94,323.7,107.94,381.23,64.81,440.9c-16.76,23.19-21,43.29-14.39,58.53"/><path class="cls-1" d="M96.91,580.08c-4.93-7.17-11.69-16.61-16.37-23.94l-8.81-14.52c-7.31-12.74-2.94-32.39,15.06-57.29C129.92,424.66,235,357.41,321.5,334.12A228,228,0,0,0,335,354.76C256,389.44,157,465.93,113.84,525.6c-18.93,26.19-24,44.79-16.93,54.48"/><path class="cls-1" d="M156.86,646.57l-7.74-7.22c-7.17-7.24-16.81-16.83-23.7-24.34-5.72-6.42.43-23.61,20-50.71,43.14-59.67,135.09-144.82,205.39-190.2q8.42,9.33,17.8,17.86C308.17,447.2,224.19,540.34,181.05,600c-20,27.68-27.71,43.29-24.19,46.56"/><path class="cls-1" d="M227.6,699.68c-11.12-7.25-25.85-17.1-36.62-24.87-.61-.48,9-14.53,29.16-42.46,43.13-59.67,118.36-160,168-224.22q10.17,7.64,21,14.28c-38.06,72-103.88,178.82-147,238.49-20.1,27.81-31.73,40.48-34.56,38.78"/><path class="cls-1" d="M308,738.73c-8.1-3.26-19-7.42-27-10.94l-14.44-6.72c6.51,3.1,20.18-8.45,40-35.81,43.13-59.67,99-171.9,124.81-250.67q11.36,5.52,23.15,9.88C441.54,528.7,396,645.35,352.88,705c-19.21,26.57-34.7,37.36-44.84,33.71"/><path class="cls-1" d="M398.17,761.2l-11.79-1.75c-10.37-2.05-24.21-4.68-34.48-7.15,13.37,3.28,30.29-7.09,48.66-32.51,43.14-59.66,78-179.62,77.82-267.94a218.23,218.23,0,0,0,24.22,4.68C522,609.93,457.89,766.59,398.17,761.2"/><path class="cls-1" d="M496.84,761.94c-14.94,1.3-34.91,2.46-49.9,2.77,81.32-6,115.1-183.32,80-306.41h0A176.08,176.08,0,0,0,550.34,457c39.89,91.18,37.26,213.45-5.88,273.11-13.93,19.28-30.39,29.66-47.62,31.81"/><path class="cls-1" d="M593.86,735.36c-9.29,3.71-21.66,8.72-31.12,12l-16.65,5c88-30.71,87.76-190.33,25.81-299.47a136.53,136.53,0,0,0,19.6-6.92c62.63,85,78.42,202.34,35.29,262-9.24,12.78-20.43,21.88-32.93,27.45"/><path class="cls-1" d="M680.23,678.86l-10.1,8.9c-9.17,7.14-21.51,16.54-31.1,23.1C715.82,653.6,684.81,520.3,609,436.47a114.48,114.48,0,0,0,15.18-11.78C704.81,498,735.23,605.81,692.09,665.48a89.16,89.16,0,0,1-11.86,13.38"/><path class="cls-1" d="M744.65,595.09c-6.58,11.4-15.75,26.37-23.12,37.28L716,639.83c.56-.72,1.1-1.44,1.63-2.18,43.14-59.67,7-161.24-80.69-226.87a110,110,0,0,0,10.17-15.87C750.71,462,770.3,545.7,744.65,595.09"/><path class="cls-1" d="M777.09,496.18,773,517.82c-2.29,8.68-5.2,20.3-7.91,28.86,18.7-57.11-25.63-128.24-110.61-169.37A120.12,120.12,0,0,0,659,358.16c126,50,120.46,123.74,118.08,138"/><path class="cls-1" d="M776.84,394.42l.24,1.57c1.62,14.67,3.17,34.31,3.75,49.05-.12-45.45-45.19-88.55-120.35-107.38A147.68,147.68,0,0,0,658.75,316c71,11.36,110.69,37.75,118.09,78.43"/></svg>